<?xml version="1.0" encoding="UTF-8"?><svg id="b" xmlns="http://www.w3.org/2000/svg" width="240" height="47.14" viewBox="0 0 240 47.14"><defs><style>.d{fill:#ff1101;}.e{fill:#fff;}.f{fill:#052147;}.g{fill:#999;}</style></defs><g id="c"><path class="g" d="M3.01,44.2V10.16c.06-1.03.31-2.74,1.16-4.47C1.08,8.1.1,11.48,0,13.11v34.02h239.98v-2.93H3.01Z"/><path class="f" d="M3.01,44.2h236.99l-.02-33.74V2.92s0-2.92,0-2.92H15.11C8.58,0,5.56,2.87,4.17,5.69c-.85,1.73-1.1,3.45-1.16,4.47v34.04Z"/><rect class="d" x="133.68" y="33.7" width="92.73" height="3.22"/><path class="e" d="M133.67,29.74v-15.92h4.41c1.21,0,2.17.06,2.86.18.7.12,1.3.33,1.83.63.49.29.9.64,1.23,1.04.34.41.6.87.77,1.39.18.52.26,1.07.26,1.65,0,.61-.1,1.2-.3,1.77-.2.57-.48,1.06-.86,1.49-.37.43-.81.78-1.32,1.05-.33.16-.69.29-1.09.38-.4.1-.88.17-1.42.21-.55.04-1.21.06-2.01.06h-1.06v6.06h-3.31ZM136.98,20.87h.96c1,0,1.75-.07,2.25-.21.48-.13.85-.35,1.11-.68.27-.33.4-.73.4-1.2,0-.51-.14-.94-.41-1.3-.27-.35-.65-.59-1.12-.7-.47-.1-1.16-.15-2.09-.15h-1.1v4.24ZM156.95,29.74v-2.81h-6.26v-3.73h6v-2.81h-6v-3.76h6.26v-2.81h-9.58v15.92h9.58ZM159.89,29.74v-15.92h5.14c1.29,0,2.3.09,3.03.28.73.18,1.39.51,1.97.98,1.18.93,1.77,2.21,1.77,3.84s-.64,2.9-1.93,3.83c-.35.27-.72.48-1.1.63-.39.15-.92.31-1.62.48l4.82,5.88h-4.08l-4.67-6.1v6.1h-3.31ZM163.2,21.42h1.61c.85,0,1.54-.09,2.08-.25.53-.17.93-.43,1.18-.8.25-.36.38-.83.38-1.4,0-.79-.3-1.4-.92-1.81-.25-.18-.6-.31-1.04-.39-.45-.08-1.05-.13-1.82-.13h-1.47v4.79ZM177.87,29.74v-6.54h5.49v-2.81h-5.49v-3.76h5.76v-2.81h-9.06v15.92h3.31ZM195.92,29.74v-2.81h-6.26v-3.73h6.01v-2.81h-6.01v-3.76h6.26v-2.81h-9.58v15.92h9.58ZM210.9,25.31c-.7.68-1.37,1.16-2.01,1.45-.64.29-1.37.43-2.19.43-1.02,0-1.96-.24-2.83-.73-.88-.49-1.57-1.15-2.09-1.98-.51-.83-.77-1.73-.77-2.7,0-1.02.24-1.94.73-2.76.48-.82,1.15-1.46,2.01-1.93.86-.47,1.82-.7,2.88-.7,1,0,1.85.16,2.54.48.7.32,1.34.83,1.9,1.53h3.51c-.3-.63-.61-1.17-.95-1.61-.33-.44-.78-.88-1.31-1.3-.79-.63-1.68-1.11-2.66-1.44-.98-.33-2.01-.49-3.08-.49-1.18,0-2.3.21-3.36.62-1.06.42-2,1.01-2.82,1.77-.82.76-1.45,1.63-1.9,2.63-.45.99-.67,2.04-.67,3.14,0,1.5.39,2.89,1.19,4.17.79,1.27,1.87,2.28,3.23,3.03,1.37.75,2.84,1.12,4.42,1.12,2.01,0,3.77-.52,5.25-1.57,1.19-.85,2.08-1.89,2.65-3.14h-3.68M222.64,29.74v-13.11h3.79v-2.81h-10.84v2.81h3.73v13.11h3.31ZM55.02,16.04c-.78-.75-1.7-1.35-2.74-1.78-1.04-.43-2.16-.64-3.32-.64-1.5,0-2.92.37-4.22,1.11-1.3.73-2.35,1.73-3.12,2.97-.78,1.24-1.17,2.61-1.17,4.05s.38,2.92,1.14,4.19c.76,1.27,1.8,2.28,3.1,3.02,1.3.74,2.74,1.11,4.27,1.11s2.93-.37,4.24-1.11c1.31-.74,2.36-1.74,3.13-2.99.77-1.25,1.17-2.62,1.17-4.07,0-1.15-.22-2.23-.66-3.23-.44-1-1.05-1.89-1.82-2.64M54.51,25.03c-.58.96-1.37,1.74-2.36,2.3-.99.56-2.05.85-3.17.85s-2.22-.29-3.2-.86c-.99-.57-1.78-1.35-2.35-2.33-.57-.97-.86-2.04-.86-3.19,0-.82.17-1.62.51-2.39.33-.76.8-1.45,1.39-2.03.59-.58,1.28-1.04,2.06-1.37.77-.33,1.6-.5,2.45-.5,1.15,0,2.24.29,3.21.86.98.57,1.77,1.36,2.34,2.34.57.99.86,2.07.86,3.21s-.29,2.15-.88,3.11M38.17,22.52c.82-.85,1.24-2.03,1.24-3.5,0-.95-.21-1.81-.61-2.55-.41-.74-.99-1.33-1.75-1.76-.53-.29-1.16-.5-1.9-.62-.73-.13-1.64-.19-2.72-.19h-4.12v15.91h2.08v-14.05h1.94c1.54,0,2.7.19,3.46.54.3.14.57.34.8.6.22.25.4.57.52.94.12.37.18.77.18,1.18,0,.7-.14,1.3-.4,1.79-.26.48-.63.82-1.13,1.04-.75.32-1.92.48-3.45.48h-1.08l5.59,7.49h2.58s-4-5.26-4.43-5.83c1.37-.21,2.45-.69,3.19-1.45M24.65,14.72c-.32-.19-.7-.36-1.11-.48-.42-.13-.88-.21-1.36-.27l-1.82-.08h-5.01v15.91h2.08v-6.25h3.2c1.05,0,1.92-.07,2.58-.23.67-.15,1.27-.42,1.78-.79,1.1-.79,1.66-2.06,1.66-3.79,0-.91-.17-1.72-.5-2.41-.34-.7-.84-1.25-1.48-1.62M24.24,20.25c-.2.41-.48.71-.85.91-.57.33-1.53.49-2.88.49h-3.1v-5.9h2.42c1.44,0,2.49.11,3.13.33.51.15.88.45,1.16.91.28.46.43,1.06.43,1.76,0,.59-.11,1.1-.31,1.51M68.84,14.72c-.32-.19-.7-.36-1.12-.48-.42-.13-.87-.21-1.36-.27l-1.83-.08h-5.01v15.91h2.08v-6.25h3.21c1.05,0,1.92-.07,2.58-.23.67-.15,1.27-.42,1.78-.79,1.1-.79,1.66-2.06,1.66-3.79,0-.91-.17-1.72-.51-2.41-.34-.71-.84-1.25-1.48-1.62M68.43,20.25c-.2.41-.48.71-.85.91-.57.33-1.53.49-2.88.49h-3.1v-5.9h2.42c1.44,0,2.49.11,3.14.33.51.15.88.45,1.16.91.28.47.42,1.06.42,1.76,0,.59-.11,1.09-.31,1.51M118.67,13.89s-4,7.57-4.4,8.34c-.4-.78-4.29-8.34-4.29-8.34h-2.29s5.5,10.47,5.56,10.57v5.35h2.08v-5.34c.06-.1,5.63-10.57,5.63-10.57h-2.28ZM95.8,15.75h4.46v14.05h2.08v-14.05h4.5v-1.86h-11.04v1.86ZM93.7,22.52c.82-.85,1.23-2.03,1.23-3.5,0-.95-.21-1.81-.61-2.55-.41-.74-1-1.33-1.75-1.76-.53-.29-1.16-.5-1.9-.62-.73-.13-1.64-.19-2.72-.19h-4.11v15.91h2.08v-14.05h1.94c1.54,0,2.7.19,3.46.54.3.14.57.34.8.6.23.25.4.57.52.94.12.38.18.77.18,1.18,0,.7-.13,1.3-.4,1.79-.26.48-.64.82-1.13,1.04-.75.32-1.91.48-3.45.48h-1.07l5.59,7.49h2.58s-4.01-5.26-4.44-5.83c1.37-.21,2.45-.69,3.2-1.45M72.5,29.8h9.02v-1.86h-6.94v-5.24h6.72v-1.89h-6.72v-5.06h6.94v-1.86h-9.02v15.91Z"/></g></svg>