<?xml version="1.0" encoding="utf-8"?>
<!-- Generator: Adobe Illustrator 24.0.1, SVG Export Plug-In . SVG Version: 6.00 Build 0)  -->
<svg version="1.1" id="Layer_1" xmlns="http://www.w3.org/2000/svg" xmlns:xlink="http://www.w3.org/1999/xlink" x="0px" y="0px"
	 viewBox="0 0 133 18" style="enable-background:new 0 0 133 18;" xml:space="preserve">
<style type="text/css">
	.st0{fill:#231F20;}
</style>
<title>Asset 1</title>
<g id="Layer_2_1_">
	<g id="Layer_1-2">
		<g id="Layer_2-2">
			<g id="Layer_1-2-2">
				<path class="st0" d="M76.2,0.5h-2.5C73.9,0.8,74,1.2,74,1.7v11.2L65.8,0.5h-3.4c0.2,0.3,0.2,0.7,0.2,1.1V16c0,0.5,0,1.1-0.2,1.6
					h2.5c-0.2-0.5-0.2-1-0.2-1.6V3.8l9.1,13.8h2.5C76,17,76,16.4,76,15.9V1.8C75.9,1.3,76,0.9,76.2,0.5 M90.6,8.5l-2.8-1.3
					c-1.3-0.5-2.2-1.8-2.2-3.2c0-1.6,1-2.6,2.8-2.6c1.8-0.1,3.4,1,3.9,2.8l1-3.1c-1.5-0.8-3.2-1.2-4.9-1.1c-3.4,0-5.8,2-5.8,4.7
					c0,2,1.2,3.7,3.7,4.7l2.4,1.1c1.6,0.7,2.4,1.6,2.4,2.7c0.1,1.8-1.3,3.2-3.1,3.3c-0.1,0-0.2,0-0.4,0c-2.3-0.1-4.3-1.7-5-3.9
					L82,15.8c1.6,1.4,3.6,2.2,5.8,2.2c3.9,0,6.3-2.1,6.3-5.2C94.1,10.9,92.6,9.4,90.6,8.5 M34.8,8.5L32,7.2
					c-1.3-0.5-2.2-1.8-2.2-3.2c0-1.6,1-2.6,2.8-2.6c1.8-0.1,3.4,1,3.9,2.8l1-3.1c-1.5-0.8-3.3-1.2-5-1.1c-3.4,0-5.8,2-5.8,4.7
					c0,2,1.2,3.7,3.7,4.7l2.4,1.1c1.6,0.7,2.4,1.6,2.4,2.7c0.1,1.8-1.3,3.2-3.1,3.3c-0.1,0-0.2,0-0.4,0c-2.3-0.1-4.3-1.7-4.9-3.9
					l-0.7,3.2c1.6,1.5,3.6,2.3,5.8,2.2c3.9,0,6.3-2.1,6.3-5.2C38.2,10.9,36.8,9.4,34.8,8.5 M47,10.7l2.3-5.8l2.2,5.8H47z M50.3,0.5
					h-2.6C47.9,1,48.1,1.6,48,2.2c-0.1,0.4-0.2,0.7-0.3,1.1c-0.7,2.3-5.1,12.6-5.1,12.6c-0.2,0.6-0.5,1.1-0.9,1.6h2.5
					c0-0.5,0.2-1,0.4-1.4l1.6-3.8h6l1.5,3.5c0.2,0.4,0.3,0.8,0.4,1.3c0,0.2,0,0.3-0.1,0.5h3.6c-0.4-0.5-0.8-1.1-1-1.8L50.3,0.5z
					 M132.8,1.3c0-0.3,0-0.6,0.2-0.9h-3.1c0.2,0.3,0.3,0.6,0.2,0.9v14.9c0,0.4,0,0.9-0.2,1.3h3.1c-0.2-0.4-0.3-0.9-0.2-1.3V1.3z
					 M103.7,0.5h-3.1c0.2,0.3,0.3,0.6,0.2,0.9v14.9c0,0.4,0,0.9-0.2,1.3h3.1c-0.2-0.4-0.3-0.9-0.2-1.3V1.3
					C103.4,1,103.5,0.7,103.7,0.5 M113.8,8.8V1.5h1.8c2.7,0,4,0.9,4,3.6s-1.2,3.7-4.3,3.7H113.8z M122.4,15.2l-4.7-5.4
					c3-0.7,4.8-2.5,4.8-4.8c0-2.8-2.1-4.5-6-4.5H111c0.2,0.5,0.2,1,0.2,1.5v13.1c0,0.8,0,1.7-0.2,2.5h3.3c-0.4-0.8-0.5-1.6-0.4-2.5
					V9.9h0.1c0.7,0,1.2,0.6,4.9,5.4c0.6,0.9,1.4,1.6,2.2,2.2h3.9C124.1,16.9,123.2,16.1,122.4,15.2"/>
				<polygon class="st0" points="11.5,8 17.4,9.7 17.4,10 5.8,10 0,8.3 0,8 				"/>
				<polygon class="st0" points="11.5,4.2 17.4,5.9 17.4,6.2 5.8,6.2 0,4.5 0,4.2 				"/>
				<polygon class="st0" points="11.5,0.5 17.4,2.2 17.4,2.4 5.8,2.4 0,0.7 0,0.5 				"/>
				<polygon class="st0" points="11.5,11.8 17.4,13.5 17.4,13.8 5.8,13.8 0,12.1 0,11.8 				"/>
				<polygon class="st0" points="11.5,15.6 17.4,17.3 17.4,17.5 5.8,17.5 0,15.9 0,15.6 				"/>
			</g>
		</g>
	</g>
</g>
</svg>
