<?xml version="1.0" encoding="utf-8"?>
<!-- Generator: Adobe Illustrator 19.2.1, SVG Export Plug-In . SVG Version: 6.00 Build 0)  -->
<svg version="1.1" id="レイヤー_1" xmlns="http://www.w3.org/2000/svg" xmlns:xlink="http://www.w3.org/1999/xlink" x="0px"
	 y="0px" viewBox="0 0 93.4 21" style="enable-background:new 0 0 93.4 21;" xml:space="preserve">
<style type="text/css">
	.st0{fill:#19A48F;}
	.st1{fill:#040000;}
	.st2{fill:#FFFFFF;}
</style>
<g>
	<rect class="st0" width="21.2" height="21"/>
	<rect x="72.2" class="st0" width="21.2" height="21"/>
	<rect x="21" class="st1" width="51.3" height="21"/>
	<polygon class="st2" points="31,0.8 22.6,2.6 22.6,4.8 25.3,4.3 25.3,15.6 28.4,15 28.4,3.6 31,3.1 	"/>
	<path class="st2" d="M41.1,11.1c0,0,3,1.5,3.4,1.7c0.5,0.3,0.6,0.6,0.6,1.4c0,0.4,0,3.4,0,3.4c0,0.8-0.7,1.5-1.5,1.7l-4,0.8
		c-0.8,0.2-1.5-0.5-1.5-1.3v-3.5l3-0.6v2.8l0.9-0.2l0-2.7c0,0-3-1.6-3.3-1.7c-0.3-0.2-0.6-0.5-0.6-1.4V8.3c0-0.8,0.6-1.5,1.4-1.7
		l4-0.8C44.3,5.6,45,6,45,6.8l0,3.4l-3,0.6l0-2.5l-0.9,0.2L41.1,11.1z"/>
	<path class="st2" d="M34.1,14.8L33.2,15v-9l0.9-0.2V14.8z M37.1,4.3c0-0.8-0.7-1.3-1.5-1.1l-4,0.8c-0.8,0.2-1.4,0.9-1.4,1.7l0,10.6
		c0,0.8,0.7,1.4,1.5,1.3l4-0.8c0.8-0.2,1.5-0.9,1.5-1.7V4.3z"/>
	<polygon class="st2" points="52.5,0.8 44.1,2.6 44.1,4.8 46.8,4.3 46.8,15.6 49.9,15 49.9,3.6 52.5,3.1 	"/>
	<polygon class="st2" points="51.6,4.5 58.6,3.1 58.6,7.9 55.6,8.5 55.6,6 54.7,6.2 54.7,9.4 56.4,9 56.4,11.3 54.7,11.7 54.7,15.2 
		55.6,15 55.6,12.2 58.6,11.6 58.6,16.7 51.6,18.1 	"/>
	<path class="st2" d="M59.6,20.2V6.6l4.4-0.9l0.8,6.1c0,0,0,0.3,0.1,0.9c0,0,0.1-1,0.2-1.8c0.1-0.9,0.6-5.5,0.6-5.5l4.5-0.9V18
		l-2.8,0.6v-8.1c0-0.2,0-0.8,0-0.8s-0.1,0.8-0.2,1.1c0,0.3-1,8.1-1,8.1l-3.1,0.6c0,0-1-6.9-1-7.4c-0.1-0.8-0.2-0.9-0.2-1.1
		c0,0,0,0.9,0,0.7v8L59.6,20.2z"/>
</g>
</svg>
